<svg width="169" height="48" viewBox="0 0 169 48" fill="none" xmlns="http://www.w3.org/2000/svg">
<mask id="path-1-outside-1_1057_15" maskUnits="userSpaceOnUse" x="-0.942383" y="-0.977966" width="170" height="49" fill="black">
<rect fill="white" x="-0.942383" y="-0.977966" width="170" height="49"/>
<path d="M34.1936 16.984C34.1936 19.22 33.6476 21.196 32.5556 22.912C31.5156 24.576 30.1116 25.85 28.3436 26.734C26.6276 27.618 24.8076 28.06 22.8836 28.06C20.8556 28.06 18.9316 27.54 17.1116 26.5L17.2676 25.798L18.5936 25.876L19.9196 25.798C21.9476 25.486 23.5336 24.576 24.6776 23.068C25.8216 21.508 26.3936 19.454 26.3936 16.906C26.3936 14.046 25.7436 11.654 24.4436 9.73003C23.1956 7.75403 21.4536 6.76603 19.2176 6.76603C18.0216 6.76603 17.1376 7.10403 16.5656 7.78003C16.0456 8.45603 15.7856 9.21003 15.7856 10.042V31.804C15.7856 33.884 15.9416 35.522 16.2536 36.718C16.6176 37.914 17.2416 39.11 18.1256 40.306L18.7496 41.242L18.1256 42.022H4.55362L4.00762 40.618C5.35962 40.254 6.29562 39.916 6.81562 39.604C7.38762 39.292 7.77762 38.85 7.98562 38.278C8.19362 37.706 8.29762 36.796 8.29762 35.548V14.8C8.29762 12.98 8.14162 11.602 7.82962 10.666C7.56962 9.67803 6.91962 8.87203 5.87962 8.24803L4.94362 7.70203L5.25562 6.68803C6.76362 6.22003 8.71362 5.80403 11.1056 5.44003C13.5496 5.07603 15.8636 4.89403 18.0476 4.89403C23.3516 4.89403 27.3556 6.01203 30.0596 8.24803C32.8156 10.432 34.1936 13.344 34.1936 16.984ZM63.5905 35.002C64.1105 36.458 64.6825 37.628 65.3065 38.512C65.9305 39.344 66.8925 40.254 68.1925 41.242L67.4905 42.022H53.3725L52.9045 40.618L54.0745 40.306C54.8545 40.046 55.4005 39.734 55.7125 39.37C56.0765 38.954 56.2585 38.408 56.2585 37.732C56.2585 37.316 55.9725 36.25 55.4005 34.534L53.8405 29.932H41.7505L41.1265 31.882C40.3465 34.222 39.9565 35.99 39.9565 37.186C39.9565 38.33 40.1645 39.37 40.5805 40.306L41.1265 41.242L40.4245 42.022H31.8445L31.2985 40.618L32.4685 40.306C33.7165 39.942 34.6525 39.448 35.2765 38.824C35.9005 38.148 36.4985 36.978 37.0705 35.314L45.0265 12.382C45.3905 11.082 45.5725 10.172 45.5725 9.65203C45.5725 8.50803 44.7405 7.70203 43.0765 7.23403L42.2185 7.00003L42.7645 5.59603H53.3725L63.5905 35.002ZM53.0605 27.748L47.7565 11.914L42.5305 27.748H53.0605ZM78.0808 11.602C78.0808 13.682 78.8088 15.398 80.2648 16.75C81.7208 18.05 83.9048 19.532 86.8168 21.196C88.9488 22.392 90.6388 23.432 91.8868 24.316C93.1348 25.2 94.2008 26.318 95.0848 27.67C95.9688 29.022 96.4108 30.582 96.4108 32.35C96.4108 35.574 95.1108 38.122 92.5108 39.994C89.9628 41.814 86.5308 42.724 82.2148 42.724C78.5228 42.724 75.5328 42.022 73.2448 40.618C71.0088 39.214 69.8908 37.316 69.8908 34.924C69.8908 33.364 70.4108 32.142 71.4508 31.258C72.5428 30.322 73.8948 29.854 75.5068 29.854C76.7548 29.854 77.9508 30.166 79.0948 30.79C77.4828 31.622 76.6768 33.26 76.6768 35.704C76.6768 37.16 77.1968 38.408 78.2368 39.448C79.3288 40.436 80.7848 40.93 82.6048 40.93C84.4768 40.93 85.9328 40.41 86.9728 39.37C88.0648 38.33 88.6108 37.03 88.6108 35.47C88.6108 33.65 87.9348 32.168 86.5828 31.024C85.2828 29.828 83.2808 28.45 80.5768 26.89C78.4448 25.746 76.6768 24.68 75.2728 23.692C73.9208 22.704 72.7768 21.482 71.8408 20.026C70.9048 18.57 70.4368 16.854 70.4368 14.878C70.4368 11.914 71.6848 9.52203 74.1808 7.70203C76.7288 5.83003 80.0308 4.89403 84.0868 4.89403C87.5708 4.89403 90.4048 5.57003 92.5888 6.92203C94.7728 8.22203 95.8648 9.96403 95.8648 12.148C95.8648 13.552 95.3968 14.67 94.4608 15.502C93.5248 16.282 92.2508 16.672 90.6388 16.672C89.4948 16.672 88.2988 16.386 87.0508 15.814C87.7268 15.294 88.2468 14.644 88.6108 13.864C88.9748 13.084 89.1568 12.278 89.1568 11.446C89.1568 10.146 88.6888 9.05403 87.7528 8.17003C86.8168 7.23403 85.4388 6.76603 83.6188 6.76603C81.8508 6.76603 80.4728 7.23403 79.4848 8.17003C78.5488 9.10603 78.0808 10.25 78.0808 11.602ZM131.019 29.074C131.019 33.546 129.875 36.952 127.587 39.292C125.299 41.58 121.945 42.724 117.525 42.724C113.209 42.724 109.829 41.528 107.385 39.136C104.941 36.744 103.719 33.39 103.719 29.074V15.112C103.719 12.72 103.511 11.004 103.095 9.96403C102.679 8.92403 101.769 7.80603 100.365 6.61003L100.911 5.59603H114.561L115.107 6.84403C113.911 7.46803 113.053 8.04003 112.533 8.56003C112.013 9.02803 111.649 9.65203 111.441 10.432C111.285 11.212 111.207 12.382 111.207 13.942V29.776C111.207 33.26 111.883 35.912 113.235 37.732C114.587 39.5 116.563 40.384 119.163 40.384C122.127 40.384 124.415 39.474 126.027 37.654C127.639 35.782 128.445 33.156 128.445 29.776V12.07C128.445 10.458 128.133 9.36603 127.509 8.79403C126.937 8.17003 125.663 7.57203 123.687 7.00003L124.233 5.59603H133.281L133.983 6.45403L133.281 7.31203C132.397 8.50803 131.773 9.73003 131.409 10.978C131.097 12.174 130.967 13.786 131.019 15.814V29.074ZM142.208 15.814C142.208 13.734 142.052 12.096 141.74 10.9C141.428 9.70403 140.83 8.50803 139.946 7.31203L139.322 6.45403L139.946 5.59603H157.184C160.044 5.59603 161.968 5.25803 162.956 4.58203L163.892 3.88003L164.672 4.58203V14.332L163.112 14.878C162.176 12.07 161.24 10.146 160.304 9.10603C159.42 8.06603 158.146 7.54603 156.482 7.54603H152.972C151.62 7.54603 150.736 7.80603 150.32 8.32603C149.904 8.79403 149.696 9.83403 149.696 11.446V22.522H155.312C156.872 22.522 158.016 22.366 158.744 22.054C159.524 21.742 160.096 21.118 160.46 20.182L160.85 19.09L161.864 19.714V28.45L160.148 29.074L159.836 27.358C159.628 26.266 159.056 25.512 158.12 25.096C157.184 24.68 155.676 24.472 153.596 24.472H149.696V36.25C149.696 37.81 149.93 38.85 150.398 39.37C150.866 39.838 151.906 40.072 153.518 40.072H157.34C158.9 40.072 160.122 39.526 161.006 38.434C161.942 37.342 162.826 35.444 163.658 32.74L165.296 33.286V42.646L164.438 43.348C163.71 42.828 162.878 42.464 161.942 42.256C161.006 42.1 159.706 42.022 158.042 42.022H138.464L137.918 40.618C139.218 40.254 140.154 39.916 140.726 39.604C141.298 39.24 141.688 38.772 141.896 38.2C142.104 37.628 142.208 36.744 142.208 35.548V15.814Z"/>
</mask>
<path d="M34.1936 16.984C34.1936 19.22 33.6476 21.196 32.5556 22.912C31.5156 24.576 30.1116 25.85 28.3436 26.734C26.6276 27.618 24.8076 28.06 22.8836 28.06C20.8556 28.06 18.9316 27.54 17.1116 26.5L17.2676 25.798L18.5936 25.876L19.9196 25.798C21.9476 25.486 23.5336 24.576 24.6776 23.068C25.8216 21.508 26.3936 19.454 26.3936 16.906C26.3936 14.046 25.7436 11.654 24.4436 9.73003C23.1956 7.75403 21.4536 6.76603 19.2176 6.76603C18.0216 6.76603 17.1376 7.10403 16.5656 7.78003C16.0456 8.45603 15.7856 9.21003 15.7856 10.042V31.804C15.7856 33.884 15.9416 35.522 16.2536 36.718C16.6176 37.914 17.2416 39.11 18.1256 40.306L18.7496 41.242L18.1256 42.022H4.55362L4.00762 40.618C5.35962 40.254 6.29562 39.916 6.81562 39.604C7.38762 39.292 7.77762 38.85 7.98562 38.278C8.19362 37.706 8.29762 36.796 8.29762 35.548V14.8C8.29762 12.98 8.14162 11.602 7.82962 10.666C7.56962 9.67803 6.91962 8.87203 5.87962 8.24803L4.94362 7.70203L5.25562 6.68803C6.76362 6.22003 8.71362 5.80403 11.1056 5.44003C13.5496 5.07603 15.8636 4.89403 18.0476 4.89403C23.3516 4.89403 27.3556 6.01203 30.0596 8.24803C32.8156 10.432 34.1936 13.344 34.1936 16.984ZM63.5905 35.002C64.1105 36.458 64.6825 37.628 65.3065 38.512C65.9305 39.344 66.8925 40.254 68.1925 41.242L67.4905 42.022H53.3725L52.9045 40.618L54.0745 40.306C54.8545 40.046 55.4005 39.734 55.7125 39.37C56.0765 38.954 56.2585 38.408 56.2585 37.732C56.2585 37.316 55.9725 36.25 55.4005 34.534L53.8405 29.932H41.7505L41.1265 31.882C40.3465 34.222 39.9565 35.99 39.9565 37.186C39.9565 38.33 40.1645 39.37 40.5805 40.306L41.1265 41.242L40.4245 42.022H31.8445L31.2985 40.618L32.4685 40.306C33.7165 39.942 34.6525 39.448 35.2765 38.824C35.9005 38.148 36.4985 36.978 37.0705 35.314L45.0265 12.382C45.3905 11.082 45.5725 10.172 45.5725 9.65203C45.5725 8.50803 44.7405 7.70203 43.0765 7.23403L42.2185 7.00003L42.7645 5.59603H53.3725L63.5905 35.002ZM53.0605 27.748L47.7565 11.914L42.5305 27.748H53.0605ZM78.0808 11.602C78.0808 13.682 78.8088 15.398 80.2648 16.75C81.7208 18.05 83.9048 19.532 86.8168 21.196C88.9488 22.392 90.6388 23.432 91.8868 24.316C93.1348 25.2 94.2008 26.318 95.0848 27.67C95.9688 29.022 96.4108 30.582 96.4108 32.35C96.4108 35.574 95.1108 38.122 92.5108 39.994C89.9628 41.814 86.5308 42.724 82.2148 42.724C78.5228 42.724 75.5328 42.022 73.2448 40.618C71.0088 39.214 69.8908 37.316 69.8908 34.924C69.8908 33.364 70.4108 32.142 71.4508 31.258C72.5428 30.322 73.8948 29.854 75.5068 29.854C76.7548 29.854 77.9508 30.166 79.0948 30.79C77.4828 31.622 76.6768 33.26 76.6768 35.704C76.6768 37.16 77.1968 38.408 78.2368 39.448C79.3288 40.436 80.7848 40.93 82.6048 40.93C84.4768 40.93 85.9328 40.41 86.9728 39.37C88.0648 38.33 88.6108 37.03 88.6108 35.47C88.6108 33.65 87.9348 32.168 86.5828 31.024C85.2828 29.828 83.2808 28.45 80.5768 26.89C78.4448 25.746 76.6768 24.68 75.2728 23.692C73.9208 22.704 72.7768 21.482 71.8408 20.026C70.9048 18.57 70.4368 16.854 70.4368 14.878C70.4368 11.914 71.6848 9.52203 74.1808 7.70203C76.7288 5.83003 80.0308 4.89403 84.0868 4.89403C87.5708 4.89403 90.4048 5.57003 92.5888 6.92203C94.7728 8.22203 95.8648 9.96403 95.8648 12.148C95.8648 13.552 95.3968 14.67 94.4608 15.502C93.5248 16.282 92.2508 16.672 90.6388 16.672C89.4948 16.672 88.2988 16.386 87.0508 15.814C87.7268 15.294 88.2468 14.644 88.6108 13.864C88.9748 13.084 89.1568 12.278 89.1568 11.446C89.1568 10.146 88.6888 9.05403 87.7528 8.17003C86.8168 7.23403 85.4388 6.76603 83.6188 6.76603C81.8508 6.76603 80.4728 7.23403 79.4848 8.17003C78.5488 9.10603 78.0808 10.25 78.0808 11.602ZM131.019 29.074C131.019 33.546 129.875 36.952 127.587 39.292C125.299 41.58 121.945 42.724 117.525 42.724C113.209 42.724 109.829 41.528 107.385 39.136C104.941 36.744 103.719 33.39 103.719 29.074V15.112C103.719 12.72 103.511 11.004 103.095 9.96403C102.679 8.92403 101.769 7.80603 100.365 6.61003L100.911 5.59603H114.561L115.107 6.84403C113.911 7.46803 113.053 8.04003 112.533 8.56003C112.013 9.02803 111.649 9.65203 111.441 10.432C111.285 11.212 111.207 12.382 111.207 13.942V29.776C111.207 33.26 111.883 35.912 113.235 37.732C114.587 39.5 116.563 40.384 119.163 40.384C122.127 40.384 124.415 39.474 126.027 37.654C127.639 35.782 128.445 33.156 128.445 29.776V12.07C128.445 10.458 128.133 9.36603 127.509 8.79403C126.937 8.17003 125.663 7.57203 123.687 7.00003L124.233 5.59603H133.281L133.983 6.45403L133.281 7.31203C132.397 8.50803 131.773 9.73003 131.409 10.978C131.097 12.174 130.967 13.786 131.019 15.814V29.074ZM142.208 15.814C142.208 13.734 142.052 12.096 141.74 10.9C141.428 9.70403 140.83 8.50803 139.946 7.31203L139.322 6.45403L139.946 5.59603H157.184C160.044 5.59603 161.968 5.25803 162.956 4.58203L163.892 3.88003L164.672 4.58203V14.332L163.112 14.878C162.176 12.07 161.24 10.146 160.304 9.10603C159.42 8.06603 158.146 7.54603 156.482 7.54603H152.972C151.62 7.54603 150.736 7.80603 150.32 8.32603C149.904 8.79403 149.696 9.83403 149.696 11.446V22.522H155.312C156.872 22.522 158.016 22.366 158.744 22.054C159.524 21.742 160.096 21.118 160.46 20.182L160.85 19.09L161.864 19.714V28.45L160.148 29.074L159.836 27.358C159.628 26.266 159.056 25.512 158.12 25.096C157.184 24.68 155.676 24.472 153.596 24.472H149.696V36.25C149.696 37.81 149.93 38.85 150.398 39.37C150.866 39.838 151.906 40.072 153.518 40.072H157.34C158.9 40.072 160.122 39.526 161.006 38.434C161.942 37.342 162.826 35.444 163.658 32.74L165.296 33.286V42.646L164.438 43.348C163.71 42.828 162.878 42.464 161.942 42.256C161.006 42.1 159.706 42.022 158.042 42.022H138.464L137.918 40.618C139.218 40.254 140.154 39.916 140.726 39.604C141.298 39.24 141.688 38.772 141.896 38.2C142.104 37.628 142.208 36.744 142.208 35.548V15.814Z" fill="white"/>
<path d="M32.5556 22.912L30.0246 21.3014L30.0181 21.3117L30.0116 21.322L32.5556 22.912ZM28.3436 26.734L27.002 24.0508L26.9858 24.0588L26.9697 24.0671L28.3436 26.734ZM17.1116 26.5L14.1831 25.8492L13.7034 28.0077L15.6232 29.1048L17.1116 26.5ZM17.2676 25.798L17.4438 22.8032L14.8933 22.6532L14.3391 25.1472L17.2676 25.798ZM18.5936 25.876L18.4175 28.8709L18.5936 28.8812L18.7698 28.8709L18.5936 25.876ZM19.9196 25.798L20.0958 28.7929L20.2365 28.7846L20.3758 28.7631L19.9196 25.798ZM24.6776 23.068L27.0677 24.8812L27.0824 24.8618L27.0968 24.8421L24.6776 23.068ZM24.4436 9.73003L21.9072 11.332L21.9319 11.3712L21.9578 11.4096L24.4436 9.73003ZM16.5656 7.78003L14.2755 5.84221L14.2303 5.89553L14.1877 5.9509L16.5656 7.78003ZM16.2536 36.718L13.3508 37.4753L13.366 37.5337L13.3836 37.5915L16.2536 36.718ZM18.1256 40.306L20.6218 38.6419L20.5814 38.5814L20.5381 38.5229L18.1256 40.306ZM18.7496 41.242L21.0922 43.1161L22.4626 41.4032L21.2458 39.5779L18.7496 41.242ZM18.1256 42.022V45.022H19.5675L20.4682 43.8961L18.1256 42.022ZM4.55362 42.022L1.7576 43.1094L2.50142 45.022H4.55362V42.022ZM4.00762 40.618L3.2277 37.7212L0.0001266 38.5901L1.2116 41.7054L4.00762 40.618ZM6.81562 39.604L5.37906 36.9703L5.32497 36.9999L5.27213 37.0316L6.81562 39.604ZM7.98562 38.278L10.805 39.3033V39.3033L7.98562 38.278ZM7.82962 10.666L4.92839 11.4295L4.953 11.523L4.98357 11.6147L7.82962 10.666ZM5.87962 8.24803L7.4231 5.67555L7.40723 5.66603L7.39123 5.65669L5.87962 8.24803ZM4.94362 7.70203L2.07628 6.81977L1.37643 9.09428L3.432 10.2934L4.94362 7.70203ZM5.25562 6.68803L4.36642 3.82284L2.85399 4.29222L2.38828 5.80577L5.25562 6.68803ZM11.1056 5.44003L10.6637 2.47275L10.6543 2.47418L11.1056 5.44003ZM30.0596 8.24803L28.1478 10.56L28.1719 10.5799L28.1964 10.5993L30.0596 8.24803ZM34.1936 16.984H31.1936C31.1936 18.7082 30.7802 20.114 30.0246 21.3014L32.5556 22.912L35.0866 24.5227C36.515 22.278 37.1936 19.7318 37.1936 16.984H34.1936ZM32.5556 22.912L30.0116 21.322C29.2665 22.5143 28.2801 23.4117 27.002 24.0508L28.3436 26.734L29.6853 29.4173C31.9432 28.2884 33.7648 26.6378 35.0996 24.502L32.5556 22.912ZM28.3436 26.734L26.9697 24.0671C25.6772 24.733 24.328 25.06 22.8836 25.06V28.06V31.06C25.2872 31.06 27.5781 30.5031 29.7175 29.401L28.3436 26.734ZM22.8836 28.06V25.06C21.3957 25.06 19.9826 24.6854 18.6 23.8953L17.1116 26.5L15.6232 29.1048C17.8806 30.3947 20.3155 31.06 22.8836 31.06V28.06ZM17.1116 26.5L20.0402 27.1508L20.1962 26.4488L17.2676 25.798L14.3391 25.1472L14.1831 25.8492L17.1116 26.5ZM17.2676 25.798L17.0915 28.7929L18.4175 28.8709L18.5936 25.876L18.7698 22.8812L17.4438 22.8032L17.2676 25.798ZM18.5936 25.876L18.7698 28.8709L20.0958 28.7929L19.9196 25.798L19.7435 22.8032L18.4175 22.8812L18.5936 25.876ZM19.9196 25.798L20.3758 28.7631C23.1025 28.3437 25.4113 27.0646 27.0677 24.8812L24.6776 23.068L22.2875 21.2549C21.6559 22.0875 20.7927 22.6284 19.4634 22.8329L19.9196 25.798ZM24.6776 23.068L27.0968 24.8421C28.722 22.626 29.3936 19.8908 29.3936 16.906H26.3936H23.3936C23.3936 19.0172 22.9213 20.39 22.2584 21.2939L24.6776 23.068ZM26.3936 16.906H29.3936C29.3936 13.5872 28.6351 10.5749 26.9294 8.05046L24.4436 9.73003L21.9578 11.4096C22.8522 12.7332 23.3936 14.5049 23.3936 16.906H26.3936ZM24.4436 9.73003L26.9801 8.12805C25.2125 5.32933 22.538 3.76603 19.2176 3.76603V6.76603V9.76603C20.3692 9.76603 21.1788 10.1787 21.9072 11.332L24.4436 9.73003ZM19.2176 6.76603V3.76603C17.4661 3.76603 15.5994 4.27756 14.2755 5.84221L16.5656 7.78003L18.8558 9.71786C18.8301 9.74815 18.799 9.77633 18.7676 9.79823C18.737 9.81954 18.7203 9.82503 18.729 9.82169C18.752 9.8129 18.8933 9.76603 19.2176 9.76603V6.76603ZM16.5656 7.78003L14.1877 5.9509C13.2753 7.13713 12.7856 8.53072 12.7856 10.042H15.7856H18.7856C18.7856 9.88935 18.816 9.77493 18.9435 9.60917L16.5656 7.78003ZM15.7856 10.042H12.7856V31.804H15.7856H18.7856V10.042H15.7856ZM15.7856 31.804H12.7856C12.7856 33.9912 12.9453 35.9209 13.3508 37.4753L16.2536 36.718L19.1565 35.9608C18.938 35.1232 18.7856 33.7769 18.7856 31.804H15.7856ZM16.2536 36.718L13.3836 37.5915C13.864 39.17 14.6634 40.669 15.7131 42.0892L18.1256 40.306L20.5381 38.5229C19.8198 37.551 19.3712 36.6581 19.1236 35.8445L16.2536 36.718ZM18.1256 40.306L15.6295 41.9701L16.2535 42.9061L18.7496 41.242L21.2458 39.5779L20.6218 38.6419L18.1256 40.306ZM18.7496 41.242L16.407 39.3679L15.783 40.1479L18.1256 42.022L20.4682 43.8961L21.0922 43.1161L18.7496 41.242ZM18.1256 42.022V39.022H4.55362V42.022V45.022H18.1256V42.022ZM4.55362 42.022L7.34963 40.9347L6.80363 39.5307L4.00762 40.618L1.2116 41.7054L1.7576 43.1094L4.55362 42.022ZM4.00762 40.618L4.78754 43.5149C6.15031 43.148 7.44761 42.7234 8.3591 42.1765L6.81562 39.604L5.27213 37.0316C5.27401 37.0304 5.26338 37.0369 5.23726 37.0502C5.21143 37.0634 5.17446 37.0813 5.12467 37.1035C5.02363 37.1486 4.88579 37.2045 4.70468 37.2699C4.33963 37.4017 3.85264 37.5529 3.2277 37.7212L4.00762 40.618ZM6.81562 39.604L8.25217 42.2377C9.41647 41.6026 10.3288 40.6128 10.805 39.3033L7.98562 38.278L5.16624 37.2528C5.18624 37.1978 5.2262 37.1233 5.2876 37.0537C5.34682 36.9866 5.39055 36.9641 5.37906 36.9703L6.81562 39.604ZM7.98562 38.278L10.805 39.3033C11.2021 38.2113 11.2976 36.8574 11.2976 35.548H8.29762H5.29762C5.29762 36.0959 5.27442 36.5161 5.23902 36.8259C5.20176 37.1519 5.1604 37.2688 5.16624 37.2528L7.98562 38.278ZM8.29762 35.548H11.2976V14.8H8.29762H5.29762V35.548H8.29762ZM8.29762 14.8H11.2976C11.2976 12.8816 11.1422 11.1168 10.6757 9.71735L7.82962 10.666L4.98357 11.6147C5.14108 12.0872 5.29762 13.0785 5.29762 14.8H8.29762ZM7.82962 10.666L10.7308 9.90255C10.235 8.01836 8.99997 6.62167 7.4231 5.67555L5.87962 8.24803L4.33613 10.8205C4.83927 11.1224 4.90423 11.3377 4.92839 11.4295L7.82962 10.666ZM5.87962 8.24803L7.39123 5.65669L6.45523 5.11069L4.94362 7.70203L3.432 10.2934L4.368 10.8394L5.87962 8.24803ZM4.94362 7.70203L7.81095 8.58429L8.12295 7.57029L5.25562 6.68803L2.38828 5.80577L2.07628 6.81977L4.94362 7.70203ZM5.25562 6.68803L6.14482 9.55323C7.45546 9.14647 9.24404 8.75785 11.5569 8.40589L11.1056 5.44003L10.6543 2.47418C8.1832 2.85021 6.07177 3.29359 4.36642 3.82284L5.25562 6.68803ZM11.1056 5.44003L11.5476 8.4073C13.8639 8.06231 16.0293 7.89403 18.0476 7.89403V4.89403V1.89403C15.698 1.89403 13.2353 2.08975 10.6637 2.47276L11.1056 5.44003ZM18.0476 4.89403V7.89403C22.9962 7.89403 26.1968 8.94666 28.1478 10.56L30.0596 8.24803L31.9714 5.9361C28.5144 3.07741 23.7071 1.89403 18.0476 1.89403V4.89403ZM30.0596 8.24803L28.1964 10.5993C30.2055 12.1914 31.1936 14.2228 31.1936 16.984H34.1936H37.1936C37.1936 12.4652 35.4258 8.67267 31.9229 5.89679L30.0596 8.24803ZM63.5905 35.002L60.7567 35.9867L60.7609 35.9989L60.7653 36.011L63.5905 35.002ZM65.3065 38.512L62.8556 40.2421L62.8805 40.2774L62.9065 40.312L65.3065 38.512ZM68.1925 41.242L70.4224 43.2489L72.603 40.826L70.0077 38.8535L68.1925 41.242ZM67.4905 42.022V45.022H68.8266L69.7204 44.0289L67.4905 42.022ZM53.3725 42.022L50.5264 42.9707L51.2102 45.022H53.3725V42.022ZM52.9045 40.618L52.1315 37.7193L49.0499 38.5411L50.0584 41.5667L52.9045 40.618ZM54.0745 40.306L54.8475 43.2047L54.9361 43.1811L55.0232 43.1521L54.0745 40.306ZM55.7125 39.37L53.4548 37.3945L53.4447 37.406L53.4347 37.4177L55.7125 39.37ZM55.4005 34.534L58.2465 33.5854L58.2441 33.5781L58.2417 33.5709L55.4005 34.534ZM53.8405 29.932L56.6817 28.9689L55.9912 26.932H53.8405V29.932ZM41.7505 29.932V26.932H39.5606L38.8932 29.0177L41.7505 29.932ZM41.1265 31.882L43.9725 32.8307L43.9782 32.8136L43.9837 32.7964L41.1265 31.882ZM40.5805 40.306L37.839 41.5244L37.906 41.6752L37.9891 41.8176L40.5805 40.306ZM41.1265 41.242L43.3564 43.2489L44.821 41.6216L43.7178 39.7304L41.1265 41.242ZM40.4245 42.022V45.022H41.7606L42.6544 44.0289L40.4245 42.022ZM31.8445 42.022L29.0485 43.1094L29.7923 45.022H31.8445V42.022ZM31.2985 40.618L30.5255 37.7193L27.2881 38.5826L28.5025 41.7054L31.2985 40.618ZM32.4685 40.306L33.2415 43.2047L33.2751 43.1958L33.3085 43.186L32.4685 40.306ZM35.2765 38.824L37.3978 40.9454L37.4402 40.9029L37.4809 40.8589L35.2765 38.824ZM37.0705 35.314L34.2362 34.3307L34.2334 34.3388L37.0705 35.314ZM45.0265 12.382L47.8607 13.3653L47.8907 13.279L47.9154 13.1909L45.0265 12.382ZM43.0765 7.23403L43.8887 4.34608L43.8773 4.34287L43.8658 4.33974L43.0765 7.23403ZM42.2185 7.00003L39.4225 5.91269L38.215 9.01772L41.4291 9.89432L42.2185 7.00003ZM42.7645 5.59603V2.59603H40.7123L39.9685 4.50869L42.7645 5.59603ZM53.3725 5.59603L56.2063 4.61135L55.506 2.59603H53.3725V5.59603ZM53.0605 27.748V30.748H57.2292L55.9051 26.7951L53.0605 27.748ZM47.7565 11.914L50.6011 10.9611L47.7354 2.40609L44.9076 10.9738L47.7565 11.914ZM42.5305 27.748L39.6816 26.8078L38.3812 30.748H42.5305V27.748ZM63.5905 35.002L60.7653 36.011C61.3411 37.6234 62.0235 39.0633 62.8556 40.2421L65.3065 38.512L67.7574 36.782C67.3415 36.1928 66.8798 35.2926 66.4157 33.993L63.5905 35.002ZM65.3065 38.512L62.9065 40.312C63.7639 41.4552 64.9666 42.5584 66.3772 43.6305L68.1925 41.242L70.0077 38.8535C68.8184 37.9497 68.0971 37.2328 67.7065 36.712L65.3065 38.512ZM68.1925 41.242L65.9626 39.2351L65.2606 40.0151L67.4905 42.022L69.7204 44.0289L70.4224 43.2489L68.1925 41.242ZM67.4905 42.022V39.022H53.3725V42.022V45.022H67.4905V42.022ZM53.3725 42.022L56.2185 41.0733L55.7505 39.6693L52.9045 40.618L50.0584 41.5667L50.5264 42.9707L53.3725 42.022ZM52.9045 40.618L53.6775 43.5167L54.8475 43.2047L54.0745 40.306L53.3015 37.4073L52.1315 37.7193L52.9045 40.618ZM54.0745 40.306L55.0232 43.1521C55.9949 42.8282 57.1537 42.2984 57.9902 41.3224L55.7125 39.37L53.4347 37.4177C53.56 37.2715 53.6429 37.2367 53.5806 37.2723C53.5221 37.3057 53.382 37.3746 53.1258 37.46L54.0745 40.306ZM55.7125 39.37L57.9702 41.3455C58.9134 40.2677 59.2585 38.9657 59.2585 37.732H56.2585H53.2585C53.2585 37.8025 53.2489 37.7808 53.2759 37.6999C53.3056 37.6108 53.3636 37.4987 53.4548 37.3945L55.7125 39.37ZM56.2585 37.732H59.2585C59.2585 37.0756 59.0762 36.3452 58.9415 35.8431C58.7765 35.228 58.5411 34.4692 58.2465 33.5854L55.4005 34.534L52.5544 35.4827C52.8318 36.3149 53.0255 36.947 53.1465 37.3979C53.207 37.6238 53.2416 37.7755 53.2592 37.8666C53.2829 37.9894 53.2585 37.9138 53.2585 37.732H56.2585ZM55.4005 34.534L58.2417 33.5709L56.6817 28.9689L53.8405 29.932L50.9993 30.8952L52.5593 35.4972L55.4005 34.534ZM53.8405 29.932V26.932H41.7505V29.932V32.932H53.8405V29.932ZM41.7505 29.932L38.8932 29.0177L38.2692 30.9677L41.1265 31.882L43.9837 32.7964L44.6077 30.8464L41.7505 29.932ZM41.1265 31.882L38.2804 30.9333C37.483 33.3257 36.9565 35.4793 36.9565 37.186H39.9565H42.9565C42.9565 36.5008 43.21 35.1183 43.9725 32.8307L41.1265 31.882ZM39.9565 37.186H36.9565C36.9565 38.7006 37.2336 40.1623 37.839 41.5244L40.5805 40.306L43.3219 39.0876C43.0953 38.5778 42.9565 37.9595 42.9565 37.186H39.9565ZM40.5805 40.306L37.9891 41.8176L38.5351 42.7536L41.1265 41.242L43.7178 39.7304L43.1718 38.7944L40.5805 40.306ZM41.1265 41.242L38.8966 39.2351L38.1946 40.0151L40.4245 42.022L42.6544 44.0289L43.3564 43.2489L41.1265 41.242ZM40.4245 42.022V39.022H31.8445V42.022V45.022H40.4245V42.022ZM31.8445 42.022L34.6405 40.9347L34.0945 39.5307L31.2985 40.618L28.5025 41.7054L29.0485 43.1094L31.8445 42.022ZM31.2985 40.618L32.0715 43.5167L33.2415 43.2047L32.4685 40.306L31.6955 37.4073L30.5255 37.7193L31.2985 40.618ZM32.4685 40.306L33.3085 43.186C34.8279 42.7429 36.288 42.0552 37.3978 40.9454L35.2765 38.824L33.1552 36.7027C33.017 36.8409 32.605 37.1412 31.6285 37.426L32.4685 40.306ZM35.2765 38.824L37.4809 40.8589C38.5406 39.7109 39.3013 38.0527 39.9075 36.2893L37.0705 35.314L34.2334 34.3388C33.6956 35.9033 33.2604 36.5852 33.0721 36.7892L35.2765 38.824ZM37.0705 35.314L39.9047 36.2974L47.8607 13.3653L45.0265 12.382L42.1922 11.3987L34.2362 34.3307L37.0705 35.314ZM45.0265 12.382L47.9154 13.1909C48.2722 11.9167 48.5725 10.6367 48.5725 9.65203H45.5725H42.5725C42.5725 9.61816 42.5716 9.74949 42.4942 10.1362C42.4231 10.4921 42.3075 10.9665 42.1376 11.5731L45.0265 12.382ZM45.5725 9.65203H48.5725C48.5725 8.25641 48.0269 6.99489 47.0359 6.03481C46.129 5.15631 44.9824 4.65367 43.8887 4.34608L43.0765 7.23403L42.2642 10.122C42.532 10.1973 42.7041 10.2692 42.8046 10.3205C42.9047 10.3716 42.9066 10.3883 42.8611 10.3443C42.8091 10.2939 42.7238 10.1911 42.6571 10.0347C42.5901 9.8776 42.5725 9.73829 42.5725 9.65203H45.5725ZM43.0765 7.23403L43.8658 4.33974L43.0078 4.10574L42.2185 7.00003L41.4291 9.89432L42.2871 10.1283L43.0765 7.23403ZM42.2185 7.00003L45.0145 8.08737L45.5605 6.68337L42.7645 5.59603L39.9685 4.50869L39.4225 5.91269L42.2185 7.00003ZM42.7645 5.59603V8.59603H53.3725V5.59603V2.59603H42.7645V5.59603ZM53.3725 5.59603L50.5387 6.58072L60.7567 35.9867L63.5905 35.002L66.4243 34.0173L56.2063 4.61135L53.3725 5.59603ZM53.0605 27.748L55.9051 26.7951L50.6011 10.9611L47.7565 11.914L44.9118 12.8669L50.2158 28.7009L53.0605 27.748ZM47.7565 11.914L44.9076 10.9738L39.6816 26.8078L42.5305 27.748L45.3793 28.6883L50.6053 12.8543L47.7565 11.914ZM42.5305 27.748V30.748H53.0605V27.748V24.748H42.5305V27.748ZM80.2648 16.75L78.2234 18.9484L78.2449 18.9683L78.2668 18.9878L80.2648 16.75ZM86.8168 21.196L85.3284 23.8008L85.3387 23.8067L85.3491 23.8125L86.8168 21.196ZM91.8868 24.316L93.6209 21.868V21.868L91.8868 24.316ZM95.0848 27.67L97.5957 26.0283V26.0283L95.0848 27.67ZM92.5108 39.994L94.2545 42.4353L94.2637 42.4286L92.5108 39.994ZM73.2448 40.618L71.6495 43.1587L71.6626 43.1669L71.6758 43.175L73.2448 40.618ZM71.4508 31.258L73.3938 33.5439L73.4032 33.5358L71.4508 31.258ZM79.0948 30.79L80.4707 33.4559L85.494 30.8632L80.5314 28.1563L79.0948 30.79ZM78.2368 39.448L76.1155 41.5694L76.1685 41.6224L76.2241 41.6726L78.2368 39.448ZM86.9728 39.37L84.9038 37.1976L84.8773 37.2228L84.8515 37.2487L86.9728 39.37ZM86.5828 31.024L84.5516 33.2318L84.5975 33.274L84.645 33.3142L86.5828 31.024ZM80.5768 26.89L82.076 24.2915L82.036 24.2684L81.9953 24.2466L80.5768 26.89ZM75.2728 23.692L73.5028 26.1142L73.5244 26.13L73.5463 26.1455L75.2728 23.692ZM71.8408 20.026L69.3173 21.6483V21.6483L71.8408 20.026ZM74.1808 7.70203L75.9483 10.1261L75.957 10.1197L74.1808 7.70203ZM92.5888 6.92203L91.0097 9.47283L91.0319 9.48656L91.0544 9.49991L92.5888 6.92203ZM94.4608 15.502L96.3814 17.8067L96.4181 17.7761L96.4539 17.7443L94.4608 15.502ZM87.0508 15.814L85.2217 13.4362L81.2792 16.4688L85.8008 18.5412L87.0508 15.814ZM88.6108 13.864L85.8923 12.5954V12.5954L88.6108 13.864ZM87.7528 8.17003L85.6315 10.2914L85.6618 10.3217L85.6929 10.3511L87.7528 8.17003ZM79.4848 8.17003L77.4216 5.99218L77.3921 6.02005L77.3635 6.04871L79.4848 8.17003ZM78.0808 11.602H75.0808C75.0808 14.4722 76.1246 16.9995 78.2234 18.9484L80.2648 16.75L82.3062 14.5517C81.493 13.7966 81.0808 12.8919 81.0808 11.602H78.0808ZM80.2648 16.75L78.2668 18.9878C79.9517 20.4923 82.344 22.0954 85.3284 23.8008L86.8168 21.196L88.3052 18.5913C85.4656 16.9686 83.4899 15.6078 82.2628 14.5122L80.2648 16.75ZM86.8168 21.196L85.3491 23.8125C87.4366 24.9835 89.0255 25.9657 90.1528 26.7641L91.8868 24.316L93.6209 21.868C92.2521 20.8984 90.461 19.8006 88.2846 18.5796L86.8168 21.196ZM91.8868 24.316L90.1528 26.7641C91.0765 27.4184 91.8842 28.257 92.5739 29.3118L95.0848 27.67L97.5957 26.0283C96.5174 24.3791 95.1931 22.9817 93.6209 21.868L91.8868 24.316ZM95.0848 27.67L92.5739 29.3118C93.1088 30.1298 93.4108 31.1078 93.4108 32.35H96.4108H99.4108C99.4108 30.0562 98.8288 27.9143 97.5957 26.0283L95.0848 27.67ZM96.4108 32.35H93.4108C93.4108 34.6164 92.569 36.2554 90.7579 37.5594L92.5108 39.994L94.2637 42.4286C97.6526 39.9886 99.4108 36.5317 99.4108 32.35H96.4108ZM92.5108 39.994L90.7671 37.5528C88.8881 38.895 86.1364 39.724 82.2148 39.724V42.724V45.724C86.9252 45.724 91.0375 44.7331 94.2545 42.4352L92.5108 39.994ZM82.2148 42.724V39.724C78.8768 39.724 76.4843 39.0861 74.8139 38.0611L73.2448 40.618L71.6758 43.175C74.5813 44.9579 78.1688 45.724 82.2148 45.724V42.724ZM73.2448 40.618L74.8401 38.0774C73.3701 37.1543 72.8908 36.1623 72.8908 34.924H69.8908H66.8908C66.8908 38.4697 68.6475 41.2737 71.6495 43.1587L73.2448 40.618ZM69.8908 34.924H72.8908C72.8908 34.1038 73.1244 33.7728 73.3938 33.5438L71.4508 31.258L69.5079 28.9722C67.6972 30.5113 66.8908 32.6243 66.8908 34.924H69.8908ZM71.4508 31.258L73.4032 33.5358C73.8852 33.1227 74.5185 32.854 75.5068 32.854V29.854V26.854C73.2711 26.854 71.2004 27.5214 69.4984 28.9803L71.4508 31.258ZM75.5068 29.854V32.854C76.2304 32.854 76.9347 33.0291 77.6582 33.4237L79.0948 30.79L80.5314 28.1563C78.9669 27.303 77.2793 26.854 75.5068 26.854V29.854ZM79.0948 30.79L77.7189 28.1242C74.7634 29.6496 73.6768 32.589 73.6768 35.704H76.6768H79.6768C79.6768 33.931 80.2022 33.5945 80.4707 33.4559L79.0948 30.79ZM76.6768 35.704H73.6768C73.6768 37.9647 74.5193 39.9732 76.1155 41.5694L78.2368 39.448L80.3581 37.3267C79.8743 36.8429 79.6768 36.3554 79.6768 35.704H76.6768ZM78.2368 39.448L76.2241 41.6726C77.9899 43.2703 80.2242 43.93 82.6048 43.93V40.93V37.93C81.3454 37.93 80.6677 37.6017 80.2495 37.2234L78.2368 39.448ZM82.6048 40.93V43.93C85.0446 43.93 87.3486 43.2369 89.0941 41.4914L86.9728 39.37L84.8515 37.2487C84.517 37.5832 83.909 37.93 82.6048 37.93V40.93ZM86.9728 39.37L89.0418 41.5424C90.751 39.9146 91.6108 37.8192 91.6108 35.47H88.6108H85.6108C85.6108 36.2409 85.3786 36.7455 84.9038 37.1976L86.9728 39.37ZM88.6108 35.47H91.6108C91.6108 32.7956 90.5674 30.4658 88.5206 28.7339L86.5828 31.024L84.645 33.3142C85.3022 33.8703 85.6108 34.5044 85.6108 35.47H88.6108ZM86.5828 31.024L88.614 28.8162C87.0733 27.3988 84.8494 25.8915 82.076 24.2915L80.5768 26.89L79.0776 29.4886C81.7122 31.0085 83.4923 32.2572 84.5516 33.2318L86.5828 31.024ZM80.5768 26.89L81.9953 24.2466C79.9303 23.1385 78.2737 22.1355 76.9993 21.2386L75.2728 23.692L73.5463 26.1455C75.0799 27.2246 76.9593 28.3535 79.1584 29.5335L80.5768 26.89ZM75.2728 23.692L77.0429 21.2699C75.9992 20.5072 75.1074 19.5597 74.3643 18.4038L71.8408 20.026L69.3173 21.6483C70.4462 23.4044 71.8424 24.9009 73.5028 26.1142L75.2728 23.692ZM71.8408 20.026L74.3643 18.4038C73.7817 17.4975 73.4368 16.3624 73.4368 14.878H70.4368H67.4368C67.4368 17.3457 68.0279 19.6426 69.3173 21.6483L71.8408 20.026ZM70.4368 14.878H73.4368C73.4368 12.9192 74.1883 11.4094 75.9483 10.1261L74.1808 7.70203L72.4133 5.27801C69.1813 7.63467 67.4368 10.9089 67.4368 14.878H70.4368ZM74.1808 7.70203L75.957 10.1197C77.8609 8.7209 80.4884 7.89403 84.0868 7.89403V4.89403V1.89403C79.5732 1.89403 75.5967 2.93917 72.4046 5.28439L74.1808 7.70203ZM84.0868 4.89403V7.89403C87.2052 7.89403 89.4406 8.50145 91.0097 9.47283L92.5888 6.92203L94.1679 4.37124C91.369 2.63861 87.9364 1.89403 84.0868 1.89403V4.89403ZM92.5888 6.92203L91.0544 9.49991C92.506 10.364 92.8648 11.2119 92.8648 12.148H95.8648H98.8648C98.8648 8.71619 97.0396 6.08008 94.1233 4.34415L92.5888 6.92203ZM95.8648 12.148H92.8648C92.8648 12.8107 92.6816 13.0696 92.4677 13.2598L94.4608 15.502L96.4539 17.7443C98.112 16.2704 98.8648 14.2933 98.8648 12.148H95.8648ZM94.4608 15.502L92.5403 13.1974C92.2963 13.4007 91.7778 13.672 90.6388 13.672V16.672V19.672C92.7238 19.672 94.7533 19.1634 96.3814 17.8067L94.4608 15.502ZM90.6388 16.672V13.672C90.0038 13.672 89.2338 13.5145 88.3008 13.0868L87.0508 15.814L85.8008 18.5412C87.3638 19.2576 88.9858 19.672 90.6388 19.672V16.672ZM87.0508 15.814L88.8799 18.1919C89.9407 17.376 90.764 16.3442 91.3294 15.1327L88.6108 13.864L85.8923 12.5954C85.7296 12.9439 85.5129 13.2121 85.2217 13.4362L87.0508 15.814ZM88.6108 13.864L91.3294 15.1327C91.8722 13.9696 92.1568 12.7317 92.1568 11.446H89.1568H86.1568C86.1568 11.8244 86.0775 12.1985 85.8923 12.5954L88.6108 13.864ZM89.1568 11.446H92.1568C92.1568 9.32977 91.3553 7.44595 89.8127 5.98899L87.7528 8.17003L85.6929 10.3511C86.0223 10.6621 86.1568 10.9623 86.1568 11.446H89.1568ZM87.7528 8.17003L89.8741 6.04871C88.1915 4.36609 85.9297 3.76603 83.6188 3.76603V6.76603V9.76603C84.9479 9.76603 85.4421 10.102 85.6315 10.2914L87.7528 8.17003ZM83.6188 6.76603V3.76603C81.3206 3.76603 79.1181 4.38493 77.4216 5.99218L79.4848 8.17003L81.548 10.3479C81.8275 10.0831 82.381 9.76603 83.6188 9.76603V6.76603ZM79.4848 8.17003L77.3635 6.04871C75.8515 7.56066 75.0808 9.47345 75.0808 11.602H78.0808H81.0808C81.0808 11.0266 81.2461 10.6514 81.6061 10.2914L79.4848 8.17003ZM127.587 39.292L129.708 41.4134L129.72 41.4014L129.732 41.3894L127.587 39.292ZM107.385 39.136L105.287 41.28V41.28L107.385 39.136ZM103.095 9.96403L100.31 11.0782V11.0782L103.095 9.96403ZM100.365 6.61003L97.7236 5.18773L96.5744 7.32193L98.4196 8.89376L100.365 6.61003ZM100.911 5.59603V2.59603H99.1192L98.2696 4.17373L100.911 5.59603ZM114.561 5.59603L117.31 4.39357L116.523 2.59603H114.561V5.59603ZM115.107 6.84403L116.495 9.50378L118.978 8.208L117.856 5.64157L115.107 6.84403ZM112.533 8.56003L114.54 10.7899L114.599 10.7371L114.654 10.6814L112.533 8.56003ZM111.441 10.432L108.542 9.65904L108.518 9.75068L108.499 9.84368L111.441 10.432ZM113.235 37.732L110.827 39.521L110.839 39.5378L110.852 39.5544L113.235 37.732ZM126.027 37.654L128.273 39.6431L128.287 39.6275L128.3 39.6116L126.027 37.654ZM127.509 8.79403L125.298 10.8212L125.386 10.9174L125.482 11.0055L127.509 8.79403ZM123.687 7.00003L120.891 5.91269L119.702 8.96969L122.853 9.88172L123.687 7.00003ZM124.233 5.59603V2.59603H122.181L121.437 4.50869L124.233 5.59603ZM133.281 5.59603L135.603 3.69632L134.703 2.59603H133.281V5.59603ZM133.983 6.45403L136.305 8.35374L137.859 6.45403L136.305 4.55432L133.983 6.45403ZM133.281 7.31203L130.959 5.41232L130.912 5.46947L130.869 5.52886L133.281 7.31203ZM131.409 10.978L128.529 10.138L128.517 10.1792L128.506 10.2208L131.409 10.978ZM131.019 15.814H134.019V15.7756L134.018 15.7371L131.019 15.814ZM131.019 29.074H128.019C128.019 33.0552 127.006 35.5948 125.442 37.1947L127.587 39.292L129.732 41.3894C132.744 38.3093 134.019 34.0368 134.019 29.074H131.019ZM127.587 39.292L125.466 37.1707C123.921 38.7155 121.448 39.724 117.525 39.724V42.724V45.724C122.442 45.724 126.677 44.4446 129.708 41.4134L127.587 39.292ZM117.525 42.724V39.724C113.778 39.724 111.229 38.7009 109.483 36.992L107.385 39.136L105.287 41.28C108.429 44.3551 112.64 45.724 117.525 45.724V42.724ZM107.385 39.136L109.483 36.992C107.758 35.3035 106.719 32.8066 106.719 29.074H103.719H100.719C100.719 33.9735 102.124 38.1845 105.287 41.28L107.385 39.136ZM103.719 29.074H106.719V15.112H103.719H100.719V29.074H103.719ZM103.719 15.112H106.719C106.719 12.673 106.524 10.4598 105.88 8.84986L103.095 9.96403L100.31 11.0782C100.498 11.5483 100.719 12.767 100.719 15.112H103.719ZM103.095 9.96403L105.88 8.84986C105.203 7.1551 103.873 5.65743 102.31 4.3263L100.365 6.61003L98.4196 8.89376C99.665 9.95463 100.156 10.693 100.31 11.0782L103.095 9.96403ZM100.365 6.61003L103.006 8.03233L103.552 7.01833L100.911 5.59603L98.2696 4.17373L97.7236 5.18773L100.365 6.61003ZM100.911 5.59603V8.59603H114.561V5.59603V2.59603H100.911V5.59603ZM114.561 5.59603L111.813 6.79849L112.359 8.04649L115.107 6.84403L117.856 5.64157L117.31 4.39357L114.561 5.59603ZM115.107 6.84403L113.719 4.18428C112.439 4.85251 111.258 5.59284 110.412 6.43871L112.533 8.56003L114.654 10.6814C114.848 10.4872 115.384 10.0836 116.495 9.50378L115.107 6.84403ZM112.533 8.56003L110.526 6.33015C109.511 7.24421 108.877 8.40585 108.542 9.65904L111.441 10.432L114.34 11.205C114.422 10.8982 114.516 10.8119 114.54 10.7899L112.533 8.56003ZM111.441 10.432L108.499 9.84368C108.283 10.9235 108.207 12.3346 108.207 13.942H111.207H114.207C114.207 12.4295 114.287 11.5006 114.383 11.0204L111.441 10.432ZM111.207 13.942H108.207V29.776H111.207H114.207V13.942H111.207ZM111.207 29.776H108.207C108.207 33.5792 108.934 36.9725 110.827 39.521L113.235 37.732L115.643 35.9431C114.832 34.8515 114.207 32.9408 114.207 29.776H111.207ZM113.235 37.732L110.852 39.5544C112.871 42.1951 115.806 43.384 119.163 43.384V40.384V37.384C117.32 37.384 116.303 36.8049 115.618 35.9097L113.235 37.732ZM119.163 40.384V43.384C122.781 43.384 125.969 42.2446 128.273 39.6431L126.027 37.654L123.781 35.6649C122.861 36.7034 121.473 37.384 119.163 37.384V40.384ZM126.027 37.654L128.3 39.6116C130.529 37.0233 131.445 33.6096 131.445 29.776H128.445H125.445C125.445 32.7025 124.749 34.5407 123.754 35.6965L126.027 37.654ZM128.445 29.776H131.445V12.07H128.445H125.445V29.776H128.445ZM128.445 12.07H131.445C131.445 10.302 131.15 8.06142 129.536 6.58257L127.509 8.79403L125.482 11.0055C125.268 10.8099 125.272 10.6764 125.326 10.8662C125.381 11.0581 125.445 11.4363 125.445 12.07H128.445ZM127.509 8.79403L129.721 6.76686C129.052 6.03727 128.187 5.53144 127.399 5.16182C126.571 4.77324 125.598 4.43003 124.521 4.11834L123.687 7.00003L122.853 9.88172C123.752 10.142 124.404 10.3838 124.85 10.5932C125.336 10.8216 125.394 10.9268 125.298 10.8212L127.509 8.79403ZM123.687 7.00003L126.483 8.08738L127.029 6.68338L124.233 5.59603L121.437 4.50869L120.891 5.91269L123.687 7.00003ZM124.233 5.59603V8.59603H133.281V5.59603V2.59603H124.233V5.59603ZM133.281 5.59603L130.959 7.49575L131.661 8.35375L133.983 6.45403L136.305 4.55432L135.603 3.69632L133.281 5.59603ZM133.983 6.45403L131.661 4.55432L130.959 5.41232L133.281 7.31203L135.603 9.21175L136.305 8.35374L133.983 6.45403ZM133.281 7.31203L130.869 5.52886C129.804 6.96881 129.005 8.50542 128.529 10.138L131.409 10.978L134.289 11.818C134.541 10.9546 134.99 10.0473 135.694 9.09521L133.281 7.31203ZM131.409 10.978L128.506 10.2208C128.092 11.8067 127.965 13.7371 128.02 15.8909L131.019 15.814L134.018 15.7371C133.969 13.835 134.102 12.5413 134.312 11.7353L131.409 10.978ZM131.019 15.814H128.019V29.074H131.019H134.019V15.814H131.019ZM141.74 10.9L138.837 11.6573L138.837 11.6573L141.74 10.9ZM139.946 7.31203L137.52 9.07655L137.526 9.0859L137.533 9.09521L139.946 7.31203ZM139.322 6.45403L136.896 4.68951L135.612 6.45403L136.896 8.21855L139.322 6.45403ZM139.946 5.59603V2.59603H138.418L137.52 3.83152L139.946 5.59603ZM162.956 4.58203L164.65 7.05795L164.704 7.02114L164.756 6.98203L162.956 4.58203ZM163.892 3.88003L165.899 1.65015L164.065 -7.15256e-06L162.092 1.48003L163.892 3.88003ZM164.672 4.58203H167.672V3.24594L166.679 2.35215L164.672 4.58203ZM164.672 14.332L165.663 17.1636L167.672 16.4605V14.332H164.672ZM163.112 14.878L160.266 15.8267L161.229 18.7156L164.103 17.7096L163.112 14.878ZM160.304 9.10603L158.018 11.049L158.045 11.0813L158.074 11.1129L160.304 9.10603ZM150.32 8.32603L152.562 10.3191L152.614 10.2609L152.662 10.2001L150.32 8.32603ZM149.696 22.522H146.696V25.522H149.696V22.522ZM158.744 22.054L157.63 19.2686L157.596 19.2822L157.562 19.2966L158.744 22.054ZM160.46 20.182L163.256 21.2694L163.271 21.2304L163.285 21.191L160.46 20.182ZM160.85 19.09L162.422 16.5351L159.27 14.595L158.025 18.081L160.85 19.09ZM161.864 19.714H164.864V18.0376L163.436 17.1591L161.864 19.714ZM161.864 28.45L162.889 31.2694L164.864 30.5513V28.45H161.864ZM160.148 29.074L157.196 29.6107L157.832 33.1083L161.173 31.8934L160.148 29.074ZM159.836 27.358L162.787 26.8214L162.785 26.809L162.783 26.7967L159.836 27.358ZM149.696 24.472V21.472H146.696V24.472H149.696ZM150.398 39.37L148.168 41.3769L148.221 41.4356L148.276 41.4914L150.398 39.37ZM161.006 38.434L158.728 36.4817L158.701 36.5137L158.674 36.5464L161.006 38.434ZM163.658 32.74L164.606 29.894L161.693 28.923L160.79 31.8578L163.658 32.74ZM165.296 33.286H168.296V31.1238L166.244 30.44L165.296 33.286ZM165.296 42.646L167.195 44.9679L168.296 44.0677V42.646H165.296ZM164.438 43.348L162.694 45.7892L164.561 47.1231L166.337 45.6699L164.438 43.348ZM161.942 42.256L162.593 39.3275L162.514 39.3101L162.435 39.2969L161.942 42.256ZM138.464 42.022L135.668 43.1094L136.412 45.022H138.464V42.022ZM137.918 40.618L137.109 37.7291L133.922 38.6214L135.122 41.7054L137.918 40.618ZM140.726 39.604L142.162 42.2377L142.251 42.1893L142.336 42.135L140.726 39.604ZM142.208 15.814H145.208C145.208 13.6269 145.048 11.6972 144.643 10.1428L141.74 10.9L138.837 11.6573C139.055 12.4949 139.208 13.8412 139.208 15.814H142.208ZM141.74 10.9L144.643 10.1428C144.217 8.50973 143.425 6.97144 142.358 5.52886L139.946 7.31203L137.533 9.09521C138.235 10.0446 138.639 10.8983 138.837 11.6573L141.74 10.9ZM139.946 7.31203L142.372 5.54752L141.748 4.68952L139.322 6.45403L136.896 8.21855L137.52 9.07655L139.946 7.31203ZM139.322 6.45403L141.748 8.21855L142.372 7.36055L139.946 5.59603L137.52 3.83152L136.896 4.68951L139.322 6.45403ZM139.946 5.59603V8.59603H157.184V5.59603V2.59603H139.946V5.59603ZM157.184 5.59603V8.59603C158.716 8.59603 160.099 8.50672 161.291 8.29728C162.44 8.0954 163.649 7.743 164.65 7.05795L162.956 4.58203L161.262 2.10611C161.275 2.09707 161.028 2.25166 160.253 2.38778C159.521 2.51634 158.512 2.59603 157.184 2.59603V5.59603ZM162.956 4.58203L164.756 6.98203L165.692 6.28003L163.892 3.88003L162.092 1.48003L161.156 2.18203L162.956 4.58203ZM163.892 3.88003L161.885 6.10992L162.665 6.81192L164.672 4.58203L166.679 2.35215L165.899 1.65015L163.892 3.88003ZM164.672 4.58203H161.672V14.332H164.672H167.672V4.58203H164.672ZM164.672 14.332L163.681 11.5005L162.121 12.0465L163.112 14.878L164.103 17.7096L165.663 17.1636L164.672 14.332ZM163.112 14.878L165.958 13.9293C165.005 11.0701 163.913 8.63141 162.534 7.09914L160.304 9.10603L158.074 11.1129C158.567 11.6607 159.347 13.0699 160.266 15.8267L163.112 14.878ZM160.304 9.10603L162.59 7.16309C161.012 5.3069 158.815 4.54603 156.482 4.54603V7.54603V10.546C157.477 10.546 157.828 10.8252 158.018 11.049L160.304 9.10603ZM156.482 7.54603V4.54603H152.972V7.54603V10.546H156.482V7.54603ZM152.972 7.54603V4.54603C152.13 4.54603 151.261 4.62394 150.448 4.86294C149.636 5.1017 148.691 5.55948 147.977 6.45195L150.32 8.32603L152.662 10.2001C152.364 10.5726 152.069 10.6404 152.141 10.6191C152.168 10.6114 152.246 10.5917 152.392 10.5747C152.536 10.5579 152.727 10.546 152.972 10.546V7.54603ZM150.32 8.32603L148.078 6.33294C147.349 7.15275 147.055 8.14599 146.91 8.86868C146.753 9.65461 146.696 10.533 146.696 11.446H149.696H152.696C152.696 10.747 152.743 10.2995 152.794 10.0454C152.818 9.9232 152.834 9.89532 152.819 9.93134C152.805 9.96375 152.737 10.1228 152.562 10.3191L150.32 8.32603ZM149.696 11.446H146.696V22.522H149.696H152.696V11.446H149.696ZM149.696 22.522V25.522H155.312V22.522V19.522H149.696V22.522ZM155.312 22.522V25.522C156.96 25.522 158.614 25.3735 159.926 24.8115L158.744 22.054L157.562 19.2966C157.417 19.3585 156.783 19.522 155.312 19.522V22.522ZM158.744 22.054L159.858 24.8395C161.559 24.159 162.654 22.8159 163.256 21.2694L160.46 20.182L157.664 19.0947C157.592 19.2791 157.539 19.3331 157.546 19.3249C157.55 19.321 157.562 19.3089 157.582 19.295C157.602 19.281 157.62 19.2724 157.63 19.2686L158.744 22.054ZM160.46 20.182L163.285 21.191L163.675 20.099L160.85 19.09L158.025 18.081L157.635 19.173L160.46 20.182ZM160.85 19.09L159.277 21.645L160.291 22.269L161.864 19.714L163.436 17.1591L162.422 16.5351L160.85 19.09ZM161.864 19.714H158.864V28.45H161.864H164.864V19.714H161.864ZM161.864 28.45L160.839 25.6307L159.123 26.2547L160.148 29.074L161.173 31.8934L162.889 31.2694L161.864 28.45ZM160.148 29.074L163.099 28.5374L162.787 26.8214L159.836 27.358L156.884 27.8947L157.196 29.6107L160.148 29.074ZM159.836 27.358L162.783 26.7967C162.409 24.8354 161.259 23.2085 159.338 22.3546L158.12 25.096L156.901 27.8375C156.93 27.8504 156.931 27.8541 156.915 27.8417C156.907 27.8358 156.898 27.8278 156.888 27.8176C156.877 27.8074 156.868 27.7968 156.861 27.7867C156.844 27.7651 156.842 27.7557 156.848 27.7701C156.855 27.7859 156.872 27.8321 156.889 27.9194L159.836 27.358ZM158.12 25.096L159.338 22.3546C157.795 21.6689 155.751 21.472 153.596 21.472V24.472V27.472C155.6 27.472 156.572 27.6912 156.901 27.8375L158.12 25.096ZM153.596 24.472V21.472H149.696V24.472V27.472H153.596V24.472ZM149.696 24.472H146.696V36.25H149.696H152.696V24.472H149.696ZM149.696 36.25H146.696C146.696 37.1596 146.762 38.0481 146.944 38.8586C147.12 39.6391 147.456 40.5854 148.168 41.3769L150.398 39.37L152.628 37.3631C152.759 37.5087 152.814 37.6239 152.826 37.6514C152.839 37.6788 152.823 37.6506 152.798 37.5415C152.746 37.312 152.696 36.9005 152.696 36.25H149.696ZM150.398 39.37L148.276 41.4914C149.088 42.3028 150.103 42.6508 150.87 42.8234C151.686 43.007 152.591 43.072 153.518 43.072V40.072V37.072C152.833 37.072 152.411 37.0201 152.187 36.9697C152.081 36.9459 152.071 36.9334 152.122 36.9574C152.173 36.9812 152.334 37.0634 152.519 37.2487L150.398 39.37ZM153.518 40.072V43.072H157.34V40.072V37.072H153.518V40.072ZM157.34 40.072V43.072C159.692 43.072 161.816 42.2009 163.338 40.3216L161.006 38.434L158.674 36.5464C158.427 36.8512 158.108 37.072 157.34 37.072V40.072ZM161.006 38.434L163.284 40.3864C164.638 38.8063 165.667 36.4126 166.525 33.6223L163.658 32.74L160.79 31.8578C159.985 34.4755 159.246 35.8778 158.728 36.4817L161.006 38.434ZM163.658 32.74L162.709 35.5861L164.347 36.1321L165.296 33.286L166.244 30.44L164.606 29.894L163.658 32.74ZM165.296 33.286H162.296V42.646H165.296H168.296V33.286H165.296ZM165.296 42.646L163.396 40.3242L162.538 41.0262L164.438 43.348L166.337 45.6699L167.195 44.9679L165.296 42.646ZM164.438 43.348L166.181 40.9068C165.103 40.1362 163.893 39.6165 162.593 39.3275L161.942 42.256L161.291 45.1846C161.862 45.3115 162.317 45.5199 162.694 45.7892L164.438 43.348ZM161.942 42.256L162.435 39.2969C161.259 39.1008 159.768 39.022 158.042 39.022V42.022V45.022C159.644 45.022 160.753 45.0993 161.449 45.2152L161.942 42.256ZM158.042 42.022V39.022H138.464V42.022V45.022H158.042V42.022ZM138.464 42.022L141.26 40.9347L140.714 39.5307L137.918 40.618L135.122 41.7054L135.668 43.1094L138.464 42.022ZM137.918 40.618L138.727 43.5069C140.064 43.1324 141.276 42.7213 142.162 42.2377L140.726 39.604L139.289 36.9703C139.032 37.1108 138.371 37.3757 137.109 37.7291L137.918 40.618ZM140.726 39.604L142.336 42.135C143.399 41.4587 144.255 40.4894 144.715 39.2253L141.896 38.2L139.076 37.1748C139.083 37.1575 139.092 37.1364 139.105 37.1141C139.118 37.0918 139.131 37.0733 139.143 37.0595C139.167 37.0302 139.169 37.0389 139.115 37.073L140.726 39.604ZM141.896 38.2L144.715 39.2253C145.109 38.1417 145.208 36.8234 145.208 35.548H142.208H139.208C139.208 36.0659 139.185 36.4635 139.15 36.7575C139.114 37.0647 139.074 37.1817 139.076 37.1748L141.896 38.2ZM142.208 35.548H145.208V15.814H142.208H139.208V35.548H142.208Z" fill="#15222E" mask="url(#path-1-outside-1_1057_15)"/>
</svg>
